<?xml version="1.0" encoding="utf-8"?>
<!-- Generator: Adobe Illustrator 21.1.0, SVG Export Plug-In . SVG Version: 6.00 Build 0)  -->
<svg version="1.1" id="Layer_1" xmlns="http://www.w3.org/2000/svg" xmlns:xlink="http://www.w3.org/1999/xlink" x="0px" y="0px"
	 viewBox="0 0 215 23.2" style="enable-background:new 0 0 215 23.2;" xml:space="preserve">
<style type="text/css">
	.st0{fill:#EADA16;}
</style>
<g>
	<g>
		<g>
			<path class="st0" d="M99.2,1.1c0.9-0.9,2.9,0,2,1.9c2.9,0.8,5.1,2.5,6.1,4.6v7.6c-1.3,2.8-4.3,4.9-8.5,4.9
				c-8.2,0-11.4-9.1-5.7-13.2c-1-1-2.2-1.6-3.6-1.6h-7.2c-1.8,0-2.8,1.6-2.8,3c0,1.3,0.9,2.9,2.7,3c1.4,0,2.6-1.1,2.6-2.4
				c0-1.3-0.9-1.9-1.7-1.9c-0.6,0-1.1,0.4-1.2,1.1c0,0.7,0.5,1.2,1,1.1c-0.4-0.4-0.1-1.1,0.4-1.1c1,0,0.9,1.6-0.5,1.6
				c-2.5,0.1-2.4-3.1,0.3-3.1c1.1,0,2.6,0.8,2.6,2.4s-1.7,2.8-3.5,2.8c-2.7-0.1-3.8-1.9-3.7-3.5C78.6,6.5,80,5,82.4,5h7.2
				c1.6,0,2.9,0.6,4,1.7c4.2-3.5,10.4-0.8,10.5,3.7c0.1,2.8-2,5-5.2,5c-4.9-0.1-5.3-4.2-3.4-5.9l-1.8-2.2
				c-4.3,4.4-0.7,12.1,5.1,12.3c9.4,0.5,11.3-13.8,1.8-16.2C101,2.2,100.6,1.1,99.2,1.1L99.2,1.1z M94.1,7l1.8,2.1
				c0.7-0.6,1.7-0.8,2.6-0.8c3.2,0,3.2,3.8-0.1,3.4c-0.9-0.2-1.6-0.7-2.4-1.6c-1,1.5-0.2,4.6,2.6,4.8c2.6,0.1,4.4-2.3,4.3-4.7
				C102.6,5.9,97.7,3.9,94.1,7L94.1,7z M98.3,11.1c1.6,0.1,1.8-2.1,0.1-2.3c-0.6-0.1-1.4,0.1-2.1,0.9C97.1,10.5,97.7,11.1,98.3,11.1
				z"/>
			<path class="st0" d="M87.6,7.4c0,0.2,0.1,0.4,0.3,0.5c-0.5,0.2-1.2-0.2-1.2-1c0-1.2,1.4-1.6,2.6-1.6V4.9c-2.7,0-3.5,1.2-3.4,2.2
				c0,0.4,0.5,1.3,1.6,1.4c0.6,0,1.4-0.3,1.4-1.1c0-0.3-0.3-0.6-0.6-0.6C87.9,6.8,87.7,7.1,87.6,7.4z"/>
			<path class="st0" d="M77.5,6.4c-0.4-2.1,1.3-2.9,3.2-3.2h-3C76.2,3.7,76.1,5.8,77.5,6.4z"/>
			<path class="st0" d="M104.6,5.3c0.1-1.7,1.3-2.7,3-3.1V3c-1.2,0.2-1.9,1-2.2,2.5L104.6,5.3z"/>
			<path class="st0" d="M104.3,18.8c-1.7,1.3-1.1,4.2,0.9,4.2c2.5,0,2.8-3.2,0.7-3.3c-1,0-1.3,1.6-0.3,1.7c0.2,0,0.4-0.1,0.5-0.2
				c-0.1-0.1-0.2-0.2-0.2-0.4c0-0.2,0.2-0.4,0.4-0.4c0.2,0,0.4,0.2,0.4,0.4c0,0.6-0.5,1-1.1,1c-1.8-0.1-1.8-2.7,0.3-2.7
				c0.6-0.1,1.3,0.2,1.7,0.9v2c-0.4,0.8-1.4,1.4-2.4,1.3c-3-0.2-3.5-3.6-1.2-5.1L104.3,18.8z"/>
			<path class="st0" d="M75.6,4.9c-0.2-1.1,0.6-1.5,1.5-1.7h-1.4C75,3.5,74.9,4.6,75.6,4.9z"/>
		</g>
		<g>
			<path class="st0" d="M115.9,1.1c-0.9-0.9-2.9,0-2,1.9c-2.9,0.8-5.1,2.5-6.1,4.6v7.6c1.3,2.8,4.3,4.9,8.5,4.9
				c8.2,0,11.4-9.1,5.7-13.2c1-1,2.2-1.6,3.6-1.6h7.2c1.8,0,2.8,1.6,2.8,3c0,1.3-0.9,2.9-2.7,3c-1.4,0-2.6-1.1-2.6-2.4
				c0-1.3,0.9-1.9,1.7-1.9c0.6,0,1.1,0.4,1.2,1.1c0,0.7-0.5,1.2-1,1.1c0.4-0.4,0.2-1.1-0.4-1.1c-1,0-0.9,1.6,0.5,1.6
				c2.5,0.1,2.4-3.1-0.3-3.1c-1.1,0-2.6,0.8-2.6,2.4s1.7,2.8,3.5,2.8c2.7-0.1,3.8-1.9,3.7-3.5c-0.1-1.8-1.5-3.3-3.9-3.3h-7.2
				c-1.6,0-2.9,0.6-4,1.7c-4.2-3.5-10.4-0.8-10.5,3.7c-0.1,2.8,2,5,5.2,5c4.9-0.1,5.3-4.2,3.4-5.9l1.8-2.2c4.3,4.4,0.7,12-5.1,12.3
				c-9.4,0.5-11.3-13.8-1.8-16.2C114.1,2.2,114.5,1.1,115.9,1.1L115.9,1.1z M121,7l-1.8,2.1c-0.7-0.6-1.7-0.8-2.6-0.8
				c-3.2,0-3.2,3.8,0.1,3.4c0.9-0.2,1.6-0.7,2.4-1.6c1,1.5,0.2,4.6-2.6,4.8c-2.6,0.1-4.4-2.3-4.3-4.7C112.5,5.9,117.4,3.9,121,7
				L121,7z M116.8,11.1c-1.6,0.1-1.8-2.1-0.1-2.3c0.6-0.1,1.4,0.1,2.1,0.9C118.1,10.5,117.4,11.1,116.8,11.1z"/>
			<path class="st0" d="M127.6,7.4c0,0.2-0.1,0.4-0.3,0.5c0.5,0.2,1.2-0.2,1.2-1c0-1.2-1.4-1.6-2.6-1.6V4.9c2.7,0,3.5,1.2,3.4,2.2
				c0,0.4-0.5,1.3-1.6,1.4c-0.6,0-1.4-0.3-1.4-1.1c0-0.3,0.3-0.6,0.6-0.6C127.2,6.8,127.5,7.1,127.6,7.4z"/>
			<path class="st0" d="M137.6,6.4c0.4-2.1-1.3-2.9-3.2-3.2h3C138.9,3.7,139,5.8,137.6,6.4z"/>
			<path class="st0" d="M110.6,5.3c-0.1-1.7-1.3-2.7-3-3.1V3c1.2,0.2,1.9,1,2.2,2.5L110.6,5.3z"/>
			<path class="st0" d="M110.9,18.8c1.7,1.3,1.1,4.2-0.9,4.2c-2.5,0-2.8-3.2-0.7-3.3c1,0,1.3,1.6,0.3,1.7c-0.2,0-0.4-0.1-0.5-0.2
				c0.1-0.1,0.2-0.2,0.2-0.4c0-0.2-0.2-0.4-0.4-0.4c-0.2,0-0.4,0.2-0.4,0.4c0,0.6,0.5,1,1.1,1c1.8-0.1,1.8-2.7-0.3-2.7
				c-0.6-0.1-1.3,0.2-1.7,0.9v2c0.4,0.8,1.4,1.4,2.4,1.3c3-0.2,3.5-3.6,1.2-5.1L110.9,18.8z"/>
			<path class="st0" d="M139.5,4.9c0.2-1.1-0.6-1.5-1.5-1.7h1.4C140.1,3.5,140.2,4.6,139.5,4.9z"/>
		</g>
	</g>
	<path class="st0" d="M198.6,2.3c-21-0.3-77.2-0.2-81-0.1c-1,0-1.6,0.4-1.3,0.9c0.3,0.7,0.9,0.5,2.3,0.5c4.8,0,59.7-0.6,80-0.8
		c-0.6,0.2-1.1,0.6-1.5,1.1c-1.4,1.7-1.2,4.6,0.6,6c3.2,2.5,8.1-1.2,5-4.3c-0.2-0.6-0.7-1-1.4-1c-0.8,0-1.5,0.6-1.5,1.4
		s0.7,1.4,1.5,1.4c0.7,0,1.2-0.4,1.4-1c0.5,0.6,0.6,1.4,0.2,2.1c-1.3,2.6-6.3,1.8-6.1-2.2c0.3-5.9,8-3.2,11.3-1.5l6.9-2.4L208.1,0
		c-1.9,1-5.3,2.3-7.9,2.1c-0.3,0.1-0.7,0.1-1,0.1C199,2.2,198.5,2.2,198.6,2.3z"/>
	<polygon class="st0" points="208.2,0.6 206.4,1.5 208.2,2.4 211,1.5 	"/>
	<polygon class="st0" points="6.3,2.4 8.1,1.5 6.3,0.6 3.5,1.5 	"/>
	<path class="st0" d="M16.4,2.4c21-0.3,77.2-0.2,81-0.1c1,0,1.6,0.4,1.3,0.9c-0.3,0.7-0.9,0.5-2.3,0.5c-4.8,0-59.7-0.6-80-0.8
		C17,3.1,17.5,3.5,17.9,4c1.4,1.7,1.2,4.6-0.6,6c-3.2,2.5-8.1-1.2-5-4.3c0.2-0.6,0.7-1,1.4-1c0.8,0,1.5,0.6,1.5,1.4
		s-0.7,1.4-1.5,1.4c-0.7,0-1.2-0.4-1.4-1c-0.5,0.6-0.6,1.4-0.2,2.1c1.3,2.6,6.3,1.8,6.1-2.2c-0.3-5.9-8-3.2-11.3-1.5L0,2.5L6.9,0
		c1.9,1,5.3,2.3,7.9,2.1c0.3,0.1,0.7,0.1,1,0.1C16,2.2,16.5,2.2,16.4,2.4z"/>
</g>
</svg>
