<?xml version="1.0" encoding="utf-8"?>
<!-- Generator: Adobe Illustrator 23.0.1, SVG Export Plug-In . SVG Version: 6.00 Build 0)  -->
<svg version="1.1" id="Layer_1" xmlns="http://www.w3.org/2000/svg" xmlns:xlink="http://www.w3.org/1999/xlink" x="0px" y="0px"
	 viewBox="0 0 64 64" style="enable-background:new 0 0 64 64;" xml:space="preserve">
<style type="text/css">
	.st0{filter:url(#Adobe_OpacityMaskFilter);}
	.st1{fill-rule:evenodd;clip-rule:evenodd;fill:#FFFFFF;}
	.st2{mask:url(#mask-4_1_);fill-rule:evenodd;clip-rule:evenodd;fill:#EA4335;}
	.st3{filter:url(#Adobe_OpacityMaskFilter_1_);}
	.st4{mask:url(#mask-2_1_);fill-rule:evenodd;clip-rule:evenodd;fill:#FBBC05;}
	.st5{filter:url(#Adobe_OpacityMaskFilter_2_);}
	.st6{mask:url(#mask-6_1_);fill-rule:evenodd;clip-rule:evenodd;fill:#34A853;}
	.st7{filter:url(#Adobe_OpacityMaskFilter_3_);}
	.st8{mask:url(#mask-8_1_);fill-rule:evenodd;clip-rule:evenodd;fill:#4285F4;}
</style>
<g>
	<defs>
		<filter id="Adobe_OpacityMaskFilter" filterUnits="userSpaceOnUse" x="0" y="0" width="64" height="32">
			<feColorMatrix  type="matrix" values="1 0 0 0 0  0 1 0 0 0  0 0 1 0 0  0 0 0 1 0"/>
		</filter>
	</defs>
	<mask maskUnits="userSpaceOnUse" x="0" y="0" width="64" height="32" id="mask-4_1_">
		<g class="st0">
			<path id="path-3_1_" class="st1" d="M59.3,26.7H32V38h15.7c-1.5,7.2-7.6,11.3-15.7,11.3c-9.6,0-17.3-7.7-17.3-17.3
				S22.4,14.7,32,14.7c4.1,0,7.9,1.5,10.8,3.9l8.5-8.5C46.1,5.5,39.5,2.7,32,2.7C15.7,2.7,2.7,15.7,2.7,32S15.7,61.3,32,61.3
				c14.7,0,28-10.7,28-29.3C60,30.3,59.7,28.4,59.3,26.7z"/>
		</g>
	</mask>
	<polygon class="st2" points="0,14.7 22.7,32 32,23.9 64,18.7 64,0 0,0 	"/>
	<defs>
		<filter id="Adobe_OpacityMaskFilter_1_" filterUnits="userSpaceOnUse" x="0" y="14.7" width="22.7" height="34.7">
			<feColorMatrix  type="matrix" values="1 0 0 0 0  0 1 0 0 0  0 0 1 0 0  0 0 0 1 0"/>
		</filter>
	</defs>
	<mask maskUnits="userSpaceOnUse" x="0" y="14.7" width="22.7" height="34.7" id="mask-2_1_">
		<g class="st3">
			<path id="path-1_1_" class="st1" d="M59.3,26.7H32V38h15.7c-1.5,7.2-7.6,11.3-15.7,11.3c-9.6,0-17.3-7.7-17.3-17.3
				S22.4,14.7,32,14.7c4.1,0,7.9,1.5,10.8,3.9l8.5-8.5C46.1,5.5,39.5,2.7,32,2.7C15.7,2.7,2.7,15.7,2.7,32S15.7,61.3,32,61.3
				c14.7,0,28-10.7,28-29.3C60,30.3,59.7,28.4,59.3,26.7z"/>
		</g>
	</mask>
	<polygon id="Path" class="st4" points="0,49.3 0,14.7 22.7,32 	"/>
	<defs>
		<filter id="Adobe_OpacityMaskFilter_2_" filterUnits="userSpaceOnUse" x="0" y="0" width="64" height="64">
			<feColorMatrix  type="matrix" values="1 0 0 0 0  0 1 0 0 0  0 0 1 0 0  0 0 0 1 0"/>
		</filter>
	</defs>
	<mask maskUnits="userSpaceOnUse" x="0" y="0" width="64" height="64" id="mask-6_1_">
		<g class="st5">
			<path id="path-5_1_" class="st1" d="M59.3,26.7H32V38h15.7c-1.5,7.2-7.6,11.3-15.7,11.3c-9.6,0-17.3-7.7-17.3-17.3
				S22.4,14.7,32,14.7c4.1,0,7.9,1.5,10.8,3.9l8.5-8.5C46.1,5.5,39.5,2.7,32,2.7C15.7,2.7,2.7,15.7,2.7,32S15.7,61.3,32,61.3
				c14.7,0,28-10.7,28-29.3C60,30.3,59.7,28.4,59.3,26.7z"/>
		</g>
	</mask>
	<polygon class="st6" points="0,49.3 40,18.7 50.5,20 64,0 64,64 0,64 	"/>
	<defs>
		<filter id="Adobe_OpacityMaskFilter_3_" filterUnits="userSpaceOnUse" x="17.3" y="14.7" width="46.7" height="49.3">
			<feColorMatrix  type="matrix" values="1 0 0 0 0  0 1 0 0 0  0 0 1 0 0  0 0 0 1 0"/>
		</filter>
	</defs>
	<mask maskUnits="userSpaceOnUse" x="17.3" y="14.7" width="46.7" height="49.3" id="mask-8_1_">
		<g class="st7">
			<path id="path-7_1_" class="st1" d="M59.3,26.7H32V38h15.7c-1.5,7.2-7.6,11.3-15.7,11.3c-9.6,0-17.3-7.7-17.3-17.3
				S22.4,14.7,32,14.7c4.1,0,7.9,1.5,10.8,3.9l8.5-8.5C46.1,5.5,39.5,2.7,32,2.7C15.7,2.7,2.7,15.7,2.7,32S15.7,61.3,32,61.3
				c14.7,0,28-10.7,28-29.3C60,30.3,59.7,28.4,59.3,26.7z"/>
		</g>
	</mask>
	<polygon class="st8" points="64,64 22.7,32 17.3,28 64,14.7 	"/>
</g>
</svg>
